<?xml version="1.0" standalone="no"?>
<!DOCTYPE svg PUBLIC "-//W3C//DTD SVG 20010904//EN"
 "http://www.w3.org/TR/2001/REC-SVG-20010904/DTD/svg10.dtd">
<svg version="1.0" xmlns="http://www.w3.org/2000/svg"
 width="600.000000pt" height="600.000000pt" viewBox="0 0 600.000000 600.000000"
 preserveAspectRatio="xMidYMid meet">
<metadata>
Created by potrace 1.11, written by Peter Selinger 2001-2013
</metadata>
<g transform="translate(0.000000,600.000000) scale(0.100000,-0.100000)"
fill="#000000" stroke="none">
<path d="M4280 5956 c-143 -33 -280 -98 -1110 -529 -47 -24 -193 -99 -325
-167 -132 -67 -307 -157 -390 -200 -82 -43 -226 -117 -320 -165 -93 -48 -176
-92 -182 -97 -7 -6 -13 -7 -13 -3 0 4 -6 3 -12 -3 -7 -5 -89 -49 -183 -97
-417 -214 -825 -424 -1035 -533 -328 -169 -420 -232 -505 -347 -16 -22 -31
-42 -34 -45 -14 -12 -53 -94 -72 -147 -39 -110 -30 -328 17 -441 8 -20 12 -42
9 -49 -2 -8 2 -16 10 -19 8 -4 13 -10 10 -14 -3 -4 13 -27 35 -51 22 -24 40
-46 40 -49 0 -20 174 -180 195 -180 4 0 20 -9 35 -20 85 -61 282 -83 428 -49
169 39 114 13 1102 522 96 49 247 127 335 172 88 45 238 122 333 171 318 164
425 219 687 353 143 73 323 166 400 206 77 40 228 117 335 172 107 55 281 144
385 198 361 185 488 290 571 470 42 90 56 155 55 255 -1 76 -24 208 -42 242
-6 10 -9 26 -8 36 3 20 -21 72 -33 72 -4 0 -7 3 -7 8 3 19 -2 33 -10 28 -5 -3
-17 7 -28 23 -25 40 -102 121 -155 163 -51 42 -124 81 -193 104 -66 21 -251
28 -325 10z"/>
<path d="M3830 3906 c-154 -34 -288 -97 -1075 -501 -110 -56 -353 -180 -540
-275 -543 -276 -752 -385 -765 -399 -3 -4 -23 -19 -45 -36 -209 -155 -304
-369 -272 -610 8 -61 33 -160 48 -187 6 -11 8 -22 5 -26 -3 -3 -6 1 -6 8 0 7
-3 11 -6 8 -7 -8 24 -68 36 -68 5 0 7 -6 4 -14 -3 -8 0 -17 7 -22 8 -5 10 -3
4 7 -4 8 1 5 12 -6 11 -11 24 -28 29 -36 17 -31 100 -116 146 -152 90 -68 222
-116 335 -121 160 -8 304 36 583 177 113 57 214 109 225 115 11 6 67 34 125
63 58 28 215 107 350 176 251 128 849 432 1045 531 144 73 264 151 332 215
186 176 249 371 197 612 -10 44 -18 90 -18 102 -1 11 -5 19 -10 15 -5 -3 -7 2
-3 11 3 9 -1 23 -9 32 -9 8 -12 15 -8 15 4 0 0 8 -9 18 -9 9 -29 36 -44 59
-71 104 -180 200 -283 248 -101 48 -277 66 -390 41z"/>
<path d="M4530 3590 c6 -11 13 -20 16 -20 2 0 0 9 -6 20 -6 11 -13 20 -16 20
-2 0 0 -9 6 -20z"/>
<path d="M3240 1886 c-36 -7 -90 -21 -120 -31 -30 -10 -57 -18 -60 -19 -3 0
-34 -15 -70 -34 -348 -181 -544 -550 -497 -937 11 -92 15 -110 47 -197 107
-294 341 -504 650 -584 83 -22 297 -26 383 -8 209 44 418 170 537 323 157 202
227 449 196 701 -10 86 -15 105 -42 182 -104 289 -324 496 -619 584 -72 21
-115 27 -215 29 -69 2 -154 -3 -190 -9z"/>
</g>
</svg>
